<?xml version="1.0" standalone="no"?>
<!DOCTYPE svg PUBLIC "-//W3C//DTD SVG 1.1//EN" "http://www.w3.org/Graphics/SVG/1.1/DTD/svg11.dtd" >
<svg xmlns="http://www.w3.org/2000/svg">
<metadata>Generated by IcoMoon</metadata>
<defs>
<font id="icomoon" horiz-adv-x="1024">
<font-face units-per-em="1024" ascent="960" descent="-64" />
<missing-glyph horiz-adv-x="1024" />
<glyph unicode="&#x20;" d="" />
<glyph unicode="&#x31;" glyph-name="one" d="M1024 960v-1024h-171v469l-426-426v426l-427-426v938l427-426v426l426-426v469h171z" />
<glyph unicode="&#x32;" glyph-name="two" d="M0-64v1024h171v-469l426 426v-426l427 426v-938l-427 426v-426l-426 426v-469h-171z" />
<glyph unicode="&#x33;" glyph-name="play-circle" horiz-adv-x="878" d="M438.857 877.714c242.286 0 438.857-196.571 438.857-438.857s-196.571-438.857-438.857-438.857-438.857 196.571-438.857 438.857 196.571 438.857 438.857 438.857zM658.286 407.428c11.429 6.286 18.286 18.286 18.286 31.429s-6.857 25.143-18.286 31.429l-310.857 182.857c-10.857 6.857-25.143 6.857-36.571 0.571-11.429-6.857-18.286-18.857-18.286-32v-365.714c0-13.143 6.857-25.143 18.286-32 5.714-2.857 12-4.571 18.286-4.571s12.571 1.714 18.286 5.143z" />
<glyph unicode="&#x34;" glyph-name="play" horiz-adv-x="809" d="M790.857 421.143l-758.857-421.714c-17.714-9.714-32-1.143-32 18.857v841.143c0 20 14.286 28.571 32 18.857l758.857-421.714c17.714-9.714 17.714-25.714 0-35.429z" />
<glyph unicode="&#x35;" glyph-name="play3" d="M192 832l640-384-640-384z" />
<glyph unicode="&#x36;" glyph-name="pause" horiz-adv-x="878" d="M877.714 841.143v-804.571c0-20-16.571-36.571-36.571-36.571h-292.571c-20 0-36.571 16.571-36.571 36.571v804.571c0 20 16.571 36.571 36.571 36.571h292.571c20 0 36.571-16.571 36.571-36.571zM365.714 841.143v-804.571c0-20-16.571-36.571-36.571-36.571h-292.571c-20 0-36.571 16.571-36.571 36.571v804.571c0 20 16.571 36.571 36.571 36.571h292.571c20 0 36.571-16.571 36.571-36.571z" />
<glyph unicode="&#x37;" glyph-name="pause-circle" horiz-adv-x="878" d="M402.286 274.286v329.143c0 10.286-8 18.286-18.286 18.286h-146.286c-10.286 0-18.286-8-18.286-18.286v-329.143c0-10.286 8-18.286 18.286-18.286h146.286c10.286 0 18.286 8 18.286 18.286zM658.286 274.286v329.143c0 10.286-8 18.286-18.286 18.286h-146.286c-10.286 0-18.286-8-18.286-18.286v-329.143c0-10.286 8-18.286 18.286-18.286h146.286c10.286 0 18.286 8 18.286 18.286zM877.714 438.857c0-242.286-196.571-438.857-438.857-438.857s-438.857 196.571-438.857 438.857 196.571 438.857 438.857 438.857 438.857-196.571 438.857-438.857z" />
<glyph unicode="&#x38;" glyph-name="pause1" d="M512 960c-282.77 0-512-229.23-512-512s229.23-512 512-512 512 229.23 512 512-229.23 512-512 512zM512 32c-229.75 0-416 186.25-416 416s186.25 416 416 416 416-186.25 416-416-186.25-416-416-416zM320 640h128v-384h-128zM576 640h128v-384h-128z" />
<glyph unicode="&#x39;" glyph-name="pause2" d="M128 832h320v-768h-320zM576 832h320v-768h-320z" />
<glyph unicode="&#x64;" glyph-name="d" d="M1024 896q0 34-7 66.5t-20 61.5q-25-58-70.5-102t-103.5-67q-32 25-69 44-36 20-75 33.5t-81 20.5-86 7-86-7-81-20.5-75-33.5q-37-19-69-44-58 23-103.5 67t-70.5 102q-13-29-20-61.5t-7-66.5q0-55 17.5-105t49.5-90q-32-56-49.5-120t-17.5-133q0-106 40-199 40-94 109.5-163.5t163.5-109.5q93-40 199-40t199 40q94 40 163.5 109.5t109.5 163.5q40 93 40 199 0 69-17.5 133t-49.5 120q32 40 49.5 90t17.5 105zM576 579q2 36 28 60t54 38q26 13 47.5 19.5t22.5 6.5q13 3 24.5-3.5t14.5-19.5-3.5-24.5-19.5-14.5-28-8.5-29-12.5q8-9 12.5-20t4.5-24q0-27-18.5-45.5t-45.5-18.5-45.5 18.5-18.5 45.5v3zM257 680q3 13 14.5 19.5t24.5 3.5q1 0 22.5-6.5t47.5-19.5q28-14 54-38t28-60v-3q0-27-18.5-45.5t-45.5-18.5-45.5 18.5-18.5 45.5q0 13 4.5 24t12.5 20q-14 7-29 12.5t-28 8.5-19.5 14.5-3.5 24.5zM512 128q-44 0-84 11-41 11-76 31.5t-64 49.5q-29 28-50 63l82 50q29-49 80-79t112-30 112 30 80 79l82-50q-21-35-50-63-29-29-64-49.5t-76-31.5q-40-11-84-11v0z" />
<glyph unicode="&#x66;" glyph-name="f" d="M512 960q-106 0-199-40-94-40-163.5-109.5t-109.5-163.5q-40-93-40-199t40-199q40-94 109.5-163.5t163.5-109.5q93-40 199-40t199 40q94 40 163.5 109.5t109.5 163.5q40 93 40 199t-40 199q-40 94-109.5 163.5t-163.5 109.5q-93 40-199 40zM704 704q27 0 45.5-18.5t18.5-45.5-18.5-45.5-45.5-18.5-45.5 18.5-18.5 45.5 18.5 45.5 45.5 18.5zM256 640q0 27 18.5 45.5t45.5 18.5 45.5-18.5 18.5-45.5-18.5-45.5-45.5-18.5-45.5 18.5-18.5 45.5zM331 154l-22 76 437 128 22-76-437-128z" />
<glyph unicode="&#x67;" glyph-name="a" d="M512-64q106 0 199 40 94 40 163.5 109.5t109.5 163.5q40 93 40 199t-40 199q-40 94-109.5 163.5t-163.5 109.5q-93 40-199 40t-199-40q-94-40-163.5-109.5t-109.5-163.5q-40-93-40-199t40-199q40-94 109.5-163.5t163.5-109.5q93-40 199-40zM512 864q86 0 162-33 76-32 132.5-88.5t88.5-132.5q33-76 33-162t-33-162q-32-76-88.5-132.5t-132.5-88.5q-76-33-162-33t-162 33q-76 32-132.5 88.5t-88.5 132.5q-33 76-33 162t33 162q32 76 88.5 132.5t132.5 88.5q76 33 162 33zM800 704q13 0 22.5-9.5t9.5-22.5v-96q0-26-19-45t-45-19h-128q-26 0-45 19t-19 45h-128q0-26-19-45t-45-19h-128q-26 0-45 19t-19 45v96q0 13 9.5 22.5t22.5 9.5h192q13 0 22.5-9.5t9.5-22.5v-32h128v32q0 13 9.5 22.5t22.5 9.5h192zM512 192q70 0 128 34t92 90l54-33q-21-35-50-63-29-29-64-49.5t-76-31.5q-40-11-84-11-36 0-70.5 8t-65.5 22l34 55q23-10 49-15.5t53-5.5z" />
<glyph unicode="&#x68;" glyph-name="b" d="M512 960q-106 0-199-40-94-40-163.5-109.5t-109.5-163.5q-40-93-40-199t40-199q40-94 109.5-163.5t163.5-109.5q93-40 199-40t199 40q94 40 163.5 109.5t109.5 163.5q40 93 40 199t-40 199q-40 94-109.5 163.5t-163.5 109.5q-93 40-199 40zM512 128q-36 0-70.5 8t-65.5 22l34 55q23-10 49-15.5t53-5.5q70 0 128 34t92 90l54-33q-21-35-50-63-29-29-64-49.5t-76-31.5q-40-11-84-11v0zM832 576q0-26-19-45t-45-19h-128q-26 0-45 19t-19 45h-128q0-26-19-45t-45-19h-128q-26 0-45 19t-19 45v96q0 13 9.5 22.5t22.5 9.5h192q13 0 22.5-9.5t9.5-22.5v-32h128v32q0 13 9.5 22.5t22.5 9.5h192q13 0 22.5-9.5t9.5-22.5v-96z" />
<glyph unicode="&#x69;" glyph-name="c" d="M640 512q-27 0-45.5 18.5t-18.5 45.5v3q2 36 28 60t54 38q26 13 47.5 19.5t22.5 6.5q13 3 24.5-3.5t14.5-19.5-3.5-24.5-19.5-14.5-28-8.5-29-12.5q8-9 12.5-20t4.5-24q0-27-18.5-45.5t-45.5-18.5v0zM280 641q-13 3-19.5 14.5t-3.5 24.5 14.5 19.5 24.5 3.5q1 0 22.5-6.5t47.5-19.5q28-14 54-38t28-60v-3q0-27-18.5-45.5t-45.5-18.5-45.5 18.5-18.5 45.5q0 13 4.5 24t12.5 20q-14 7-29 12.5t-28 8.5v0zM512 224q61 0 112 30t80 79l82-50q-21-35-50-63-29-29-64-49.5t-76-31.5q-40-11-84-11t-84 11q-41 11-76 31.5t-64 49.5q-29 28-50 63l82 50q29-49 80-79t112-30v0zM1024 896q0 34-7 66.5t-20 61.5q-25-58-70.5-102t-103.5-67q-32 25-69 44-36 20-75 33.5t-81 20.5-86 7-86-7-81-20.5-75-33.5q-37-19-69-44-58 23-103.5 67t-70.5 102q-13-29-20-61.5t-7-66.5q0-55 17.5-105t49.5-90q-32-56-49.5-120t-17.5-133q0-106 40-199 40-94 109.5-163.5t163.5-109.5q93-40 199-40t199 40q94 40 163.5 109.5t109.5 163.5q40 93 40 199 0 69-17.5 133t-49.5 120q32 40 49.5 90t17.5 105zM512 32q-86 0-162 33-76 32-132.5 88.5t-88.5 132.5q-33 76-33 162t33 162q32 76 88.5 132.5t132.5 88.5q76 33 162 33t162-33q76-32 132.5-88.5t88.5-132.5q33-76 33-162t-33-162q-32-76-88.5-132.5t-132.5-88.5q-76-33-162-33z" />
<glyph unicode="&#x6b;" glyph-name="e" d="M555 277v-85q0-20 13.5-31.5t29.5-11.5q18 0 30 12.5t12 30.5v85h-85zM512 960q-106 0-199-40-93-41-162.5-110.5t-110.5-162.5q-40-93-40-199t40-199q41-93 110.5-162.5t162.5-110.5q93-40 199-40t199 40q93 41 162.5 110.5t110.5 162.5q40 93 40 199t-40 199q-41 93-110.5 162.5t-162.5 110.5q-93 40-199 40zM226 631q-13 13-13 30.5t13 29.5q12 13 30 13t30-13l55-55 55 55q13 13 30.5 13t30.5-13q12-12 12-29.5t-12-30.5l-55-55 55-55q12-13 12-30.5t-12-29.5q-6-7-14-10t-16-3q-9 0-16.5 3t-13.5 10l-56 55-55-55q-6-7-14-10t-16-3-16 3-14 10q-13 12-13 29.5t13 30.5l55 55zM768 277h-43v-85q0-54-36.5-91t-90.5-37q-53 0-91 37.5t-38 90.5v85h-213q-18 0-30.5 12.5t-12.5 30.5 12.5 30.5 30.5 12.5h512q18 0 30.5-12.5t12.5-30.5-12.5-30.5-30.5-12.5v0zM798 461q-6-7-14-10t-16-3-16 3-14 10l-55 55-56-55q-6-7-13.5-10t-16.5-3q-8 0-16 3t-14 10q-12 12-12 29.5t12 30.5l55 55-55 55q-12 13-12 30.5t12 29.5q13 13 30.5 13t29.5-13l56-55 55 55q12 13 30 13t30-13q13-12 13-29.5t-13-30.5l-55-55 55-55q13-13 13-30.5t-13-29.5v0z" />
<glyph unicode="&#x6c;" glyph-name="l" d="M512 96v320l-320-320v704l320-320v320l352-352z" />
<glyph unicode="&#x6e;" glyph-name="n" d="M768 832v-768h-128v352l-320-320v704l320-320v352h128z" />
<glyph unicode="&#x70;" glyph-name="p" d="M256 64v768h128v-352l320 320v-704l-320 320v-352h-128z" />
<glyph unicode="&#x72;" glyph-name="refresh" d="M752 384c0-141.376-114.624-256-256-256s-256 114.624-256 256c0 130.72 125.344 211.040 256 222.432v-158.432l320 224v32l-320 256v-161.344c-235.104-13.824-448-177.952-448-414.656 0-247.424 200.576-448 448-448s448 200.576 448 448h-192z" />
<glyph unicode="&#x73;" glyph-name="s" d="M576 800v-320l320 320v-704l-320 320v-320l-352 352z" />
<glyph unicode="&#x74;" glyph-name="t" d="M832 768v128h-640v-128h-192v-128q0-80 56-136t136-56q15 0 29.5 2.5t28.5 6.5q34-50 85.5-84t112.5-47v-198h-64q-53 0-90.5-37.5t-37.5-90.5h512q0 53-37.5 90.5t-90.5 37.5h-64v198q61 13 112.5 47t85.5 84q14-4 28.5-6.5t29.5-2.5q80 0 136 56t56 136v128h-192zM192 524q-48 0-82 34t-34 82v64h116v-64q0-30 5.5-58.5t15.5-55.5q-5-1-10.5-1.5t-10.5-0.5zM948 640q0-48-34-82t-82-34q-5 0-10.5 0.5t-10.5 1.5q10 27 15.5 55.5t5.5 58.5v64h116v-64z" />
<glyph unicode="&#x75;" glyph-name="uni75" d="M838 746v128h-640v-128h-192v-128q0-80 56-136t136-56q15 0 29.5 2.5t28.5 6.5q34-50 85.5-84t112.5-47v-198h-64q-53 0-90.5-37.5t-37.5-90.5h512q0 53-37.5 90.5t-90.5 37.5h-64v198q61 13 112.5 47t85.5 84q14-4 28.5-6.5t29.5-2.5q80 0 136 56t56 136v128h-192zM198 502q-48 0-82 34t-34 82v64h116v-64q0-30 5.5-58.5t15.5-55.5q-5-1-10.5-1.5t-10.5-0.5zM954 618q0-48-34-82t-82-34q-5 0-10.5 0.5t-10.5 1.5q10 27 15.5 55.5t5.5 58.5v64h116v-64z" />
<glyph unicode="&#x76;" glyph-name="uni76" d="M564.581 734.17l51.476-0.254-0.866-175.275-51.476 0.254 0.866 175.275z" />
<glyph unicode="&#x77;" glyph-name="uni77" d="M521.273 700.821l55.289 32.879 18.166-30.547-55.289-32.879-18.166 30.547z" />
<glyph unicode="&#x78;" glyph-name="uni78" d="M543.001 561.985h94.002v-32.001h-94.002v32.001z" />
<glyph unicode="&#x79;" glyph-name="uni79" d="M372.998 639.986h136.002v-36.001h-136.002v36.001z" />
<glyph unicode="&#x7a;" glyph-name="uni7A" d="M424.999 681.987h30v-122.002h-30v122.002z" />
<glyph unicode="&#x2659;" glyph-name="uni2659" d="M712 64h-400q-17 0-28 12-12 11-12 28v40q0 16 12 28 11 12 28 12 49 0 85 56 35 56 35 144-28 0-54 14t-26 26q0 13 33 24-33 43-33 96 0 66 47 113t113 47 113-47 47-113q0-53-32-96 32-11 32-24 0-12-26-26t-54-14q0-88 35-144 36-56 85-56 16 0 28-12t12-28v-40q0-17-12-28-11-12-28-12v0z" />
<glyph unicode="&#xe055;" glyph-name="uniE055" d="M950 362v352q-98-52-174-52-48 0-82 20-56 26-106 42-42 16-102 16-98 0-230-72v-342q144 64 248 64 22 0 58-4 20-2 56-14 12-4 26-10t18-8l12-6 17-8q17-8 19-10l16-8q24-12 58-12 66 0 166 52zM182 814q0-24-10-36-8-16-26-28v-722q0-6-4-14-4-4-14-4h-36q-10 0-14 4t-4 14v722q-16 12-28 28-10 16-10 36 0 30 22 52 20 20 52 20t52-20 20-52zM1024 778v-436q0-22-20-34-8-4-10-4-122-66-210-66-52 0-90 20l-16 8q-34 16-58 26-16 8-52 18-40 8-64 8-52 0-136-26-74-24-130-58-10-6-18-6t-18 6q-20 8-20 32v424q0 18 18 30 28 16 46 24 2 2 64 30 48 20 88 28 46 12 88 12 62 0 120-18 60-20 120-50 24-10 50-10 68 0 178 64 12 6 16 10 18 10 36-2t18-30z" />
<glyph unicode="&#xe05c;" glyph-name="uniE05C" d="M1024 320q0-96-72-258-4-4-6-14l-8-16q0-2-2-5t-4-5-2-4q-6-8-16-8-6 0-14 4-4 8-4 16t2 14v14q4 52 4 70 0 50-10 104-8 42-28 78-18 34-46 58-30 26-60 40-34 16-76 24-46 10-88 12-60 4-100 4h-128v-146q0-14-12-26-8-10-24-10-18 0-26 10l-294 292q-10 14-10 26t10 26l294 292q8 12 26 12 14 0 24-12 12-8 12-26v-146h128q408 0 500-230 30-76 30-190z" />
<glyph unicode="&#xe60c;" glyph-name="uniE60C" d="M929 379q3-3 3-6t-3-5l-48-48q-3-3-5-3-3 0-6 3l-69 69-70-69q-2-3-5-3-2 0-5 3l-49 48q-2 2-2 6 0 3 2 5l70 69-69 69q-3 2-3 5 0 4 3 6l48 48q2 3 5 3 4 0 5-3l70-69 69 69q2 3 5 3t6-3l48-48q3-2 3-5t-3-6l-69-69zM92 632h209l313 255v-878l-313 255h-209v368z" />
<glyph unicode="&#xe60d;" glyph-name="uniE60D" d="M146 632h208l313 255v-878l-313 255h-208v368zM784 673q46-46 69.5-102t24.5-122q0-63-23.5-117.5t-70.5-99.5l-63 65q33 32 49 70.5t16 83.5-16 84.5-49 72.5z" />
<glyph unicode="&#xe640;" glyph-name="uniE640" d="M644 900v-251q-86 0-197-11-111-12-210.5-79t-167.5-212q-69-145-69-411 18 178 67 275t130 142 193 53q111 8 254 8v-274l380 380-380 380z" />
<glyph unicode="&#xe655;" glyph-name="uniE655" d="M0 734l286-286-286-286 226-226 286 286 286-286 226 226-286 286 286 286-226 226-286-286-286 286-226-226z" />
<glyph unicode="&#xe6cb;" glyph-name="uniE6CB" d="M0 895v-959h136v469q143 39 263-2t226-86.5 204-56.5q97-11 195 87v548q-152-98-274-78-123 21-239 67.5t-238 72.5q-121 26-273-62v0z" />
<glyph unicode="&#xe900;" glyph-name="uniE900" d="M512 960q-106 0-199-40-94-40-163.5-109.5t-109.5-163.5q-40-93-40-199t40-199q40-94 109.5-163.5t163.5-109.5q93-40 199-40t199 40q94 40 163.5 109.5t109.5 163.5q40 93 40 199t-40 199q-40 94-109.5 163.5t-163.5 109.5q-93 40-199 40zM433 212l-236 235 91 91 145-145 307 307 91-90-398-398z" />
<glyph unicode="&#xe901;" glyph-name="uniE901" d="M798 950q-54-7-100.5-18t-89.5-43q-186 13-306-37t-187.5-132-89.5-180-11-181q22-161 127-261 106-100 238.5-134t263.5 0 203 142q-57-59-128-93-72-33-149-41t-155 10q-78 17-148 61-69 43-119 108-51 64-75.5 138.5t-19.5 155.5q4 80 44 155 40 76 94 126 54 51 118 78.5t137 33.5q72 5 150-9 37 22 78 44t78 21l-34-99 261-438q-7-87-59.5-106l-52.5-19q-9 22-29.5 49t-69.5 74q-25 24-83 62-59 37-116.5 81.5t-97.5 93.5q-39 49-27 95-15-53 17-106 33-53 83.5-101t104.5-88 83-66q57-54 85-91t34-48l29 10q30 10 63 32t57 57q23 35 11 84l-244 443z" />
<glyph unicode="&#xe902;" glyph-name="uniE902" d="M960 179l-269 269 269 269-179 179-269-269-269 269-179-179 269-269-269-269 179-179 269 269 269-269z" />
<glyph unicode="&#xe904;" glyph-name="uniE904" horiz-adv-x="1280" d="M647 790l-194-157q-24-20-28-50.5t14-55.5q20-27 52.5-31.5t58.5 15.5l198 154q11 8 24 6.5t21-11.5q9-11 7-24t-12-21l-42-33 278-256v378h-1l-153 98q-23 15-49.5 22.5t-53.5 7.5q-33 0-64-11t-56-31v0zM692 541l-103-81q-47-37-106.5-28.5t-95.5 57.5q-33 46-25.5 102t51.5 91l166 135q-17 7-35.5 11t-37.5 4q-29 0-55.5-8t-50.5-24l-144-96v-448h56l183-167q30-27 69.5-25t66.5 31q8 10 13.5 20.5t8.5 21.5l34-32q29-26 69-24.5t67 30.5q6 8 11 16t8 17q29-19 64.5-15t60.5 30q26 29 24.5 69t-30.5 67l-269 246zM192 704h-192v-448q0-27 18.5-45.5t45.5-18.5h64q27 0 45.5 18.5t18.5 45.5v448zM96 256q-13 0-22.5 9.5t-9.5 22.5 9.5 22.5 22.5 9.5 22.5-9.5 9.5-22.5-9.5-22.5-22.5-9.5zM1088 704v-448q0-27 18.5-45.5t45.5-18.5h64q27 0 45.5 18.5t18.5 45.5v448h-192zM1216 288q0-13-9.5-22.5t-22.5-9.5-22.5 9.5-9.5 22.5 9.5 22.5 22.5 9.5 22.5-9.5 9.5-22.5z" />
<glyph unicode="&#xe905;" glyph-name="list" d="M256 704v-128h512v128h-512zM256 384h512v128h-512v-128zM256 192h512v128h-512v-128z" />
<glyph unicode="&#xe9cc;" glyph-name="uniE9CC" d="M0 960h128v-1024h-128v1024zM832 317q62 0 113 13.5t79 35.5v512q-28-22-79-35.5t-113-13.5-113 13.5-79 35.5v-512q28-22 79-35.5t113-13.5zM608 927q-35 15-85 24t-107 9q-72 0-131.5-13.5t-92.5-36.5v-512q33 23 92.5 36.5t131.5 13.5q57 0 107-9t85-24v512z" />
<glyph unicode="&#xea0d;" glyph-name="uniEA0D" d="M512 960q-106 0-199-40-94-40-163.5-109.5t-109.5-163.5q-40-93-40-199t40-199q40-94 109.5-163.5t163.5-109.5q93-40 199-40t199 40q94 40 163.5 109.5t109.5 163.5q40 93 40 199t-40 199q-40 94-109.5 163.5t-163.5 109.5q-93 40-199 40zM512 32q-86 0-162 33-76 32-132.5 88.5t-88.5 132.5q-33 76-33 162t33 162q32 76 88.5 132.5t132.5 88.5q76 33 162 33t162-33q76-32 132.5-88.5t88.5-132.5q33-76 33-162t-33-162q-32-76-88.5-132.5t-132.5-88.5q-76-33-162-33zM672 704l-160-160-160 160-96-96 160-160-160-160 96-96 160 160 160-160 96 96-160 160 160 160z" />
<glyph unicode="&#xea0e;" glyph-name="uniEA0E" d="M874 810q-36 36-78 64t-88 47-95 29q-50 10-101 10t-101-10q-49-10-95-29t-88-47-78-64-64-78-47-88-29-95q-10-50-10-101t10-101q10-49 29-95t47-88 64-78 78-64 88-47 95-29q50-10 101-10t101 10q49 10 95 29t88 47 78 64 64 78 47 88 29 95q10 50 10 101t-10 101q-10 49-29 95t-47 88-64 78v0zM896 448q0-62-19-118.5t-52-103.5l-535 535q47 33 103.5 52t118.5 19q79 0 149-30t122.5-82.5 82.5-122.5 30-149zM128 448q0 62 19 118.5t52 103.5l535-535q-47-33-103.5-52t-118.5-19q-79 0-149 30t-122.5 82.5-82.5 122.5-30 149v0z" />
<glyph unicode="&#xea0f;" glyph-name="uniEA0F" d="M1015 137v0 0l-311 311 311 311q2 2 4 5t3 6q3 9 1.5 18t-8.5 16l-147 147q-7 7-16 8.5t-18-1.5q-3-1-6-3t-5-4v0 0l-311-311-311 311q-2 2-5 4t-6 3q-9 3-18 1.5t-16-8.5l-147-147q-7-7-8.5-16t1.5-18q1-3 3-6t4-5v0 0l311-311-311-311q-2-2-4-5t-3-6q-3-9-1.5-18t8.5-16l147-147q7-7 16-8.5t18 1.5q3 1 6 3t5 4v0 0l311 311 311-311q2-2 5-4t6-3q9-3 18-1.5t16 8.5l147 147q7 7 8.5 16t-1.5 18q-1 3-3 6t-4 5z" />
<glyph unicode="&#xea10;" glyph-name="uniEA10" d="M864 832l-480-480-224 224-160-160 384-384 640 640z" />
<glyph unicode="&#xea13;" glyph-name="uniEA13" d="M384 448h-320v128h320v128l192-192-192-192v128zM1024 960v-832l-384-192v192h-384v256h64v-192h320v576l256 128h-576v-256h-64v320h768z" />
<glyph unicode="&#xea14;" glyph-name="uniEA14" d="M768 320v128h-320v128h320v128l192-192zM704 384v-256h-320v-192l-384 192v832h704v-320h-64v256h-512l256-128v-576h256v192h64z" />
<glyph unicode="&#xea28;" glyph-name="uniEA28" d="M549 219q-9 0-18 3.5t-16 10.5q-14 14-14 34t14 34q30 30 46 69 15 38 15 78t-15 78q-16 39-46 69-14 14-14 34t14 34 34 14 34-14q44-44 67-101 22-56 22-114t-22-114q-23-57-67-101-7-7-16-10.5t-18-3.5zM416 0q-6 0-12 2.5t-11 6.5l-246 247h-115q-13 0-22.5 9.5t-9.5 22.5v320q0 13 9.5 22.5t22.5 9.5h115l246 247q7 6 16.5 8t18.5-1q9-4 14.5-12t5.5-18v-832q0-10-5.5-18t-14.5-12q-3-1-6-1.5t-6-0.5z" />
<glyph unicode="&#xea2a;" glyph-name="uniEA2A" d="M960 341v-85h-85l-107 107-107-107h-85v85l107 107-107 107v85h85l107-107 107 107h85v-85l-107-107zM416 0q-6 0-12 2.5t-11 6.5l-246 247h-115q-13 0-22.5 9.5t-9.5 22.5v320q0 13 9.5 22.5t22.5 9.5h115l246 247q7 6 16.5 8t18.5-1q9-4 14.5-12t5.5-18v-832q0-10-5.5-18t-14.5-12q-3-1-6-1.5t-6-0.5z" />
<glyph unicode="&#xea7d;" glyph-name="uniEA7D" d="M256 320l14 30q15 30 56.5 66t116.5 66 197 30v-192l384 256-384 256v-192q-96 0-168-27-72-28-120-73t-72-102q-24-58-24-118zM704 192h-576v384h126q7 9 15.5 17.5l16.5 16.5q33 31 72.5 54.5t83.5 39.5h-442v-640h832v269l-128-86v-55z" />
</font>
</defs>
</svg>
