<!-- Generated by IcoMoon.io -->
<svg version="1.1" xmlns="http://www.w3.org/2000/svg" width="32" height="32" viewBox="0 0 32 32">
<title>dead-svgrepo-com</title>
<path d="M17.333 21.333v2.667c0 0.835 0.692 1.333 1.36 1.333 0.744 0 1.307-0.573 1.307-1.333v-2.667h-2.667z"></path>
<path d="M16 0c-8.823 0-16 7.177-16 16s7.177 16 16 16 16-7.177 16-16-7.177-16-16-16zM7.057 10.276c-0.521-0.521-0.521-1.364 0-1.885s1.364-0.521 1.885 0l1.724 1.724 1.724-1.724c0.521-0.521 1.364-0.521 1.885 0s0.521 1.364 0 1.885l-1.724 1.724 1.724 1.724c0.521 0.521 0.521 1.364 0 1.885-0.26 0.26-0.601 0.391-0.943 0.391s-0.683-0.131-0.943-0.391l-1.724-1.724-1.724 1.724c-0.26 0.26-0.601 0.391-0.943 0.391s-0.683-0.131-0.943-0.391c-0.521-0.521-0.521-1.364 0-1.885l1.724-1.724-1.724-1.724zM24 21.333h-1.333v2.667c0 2.243-1.747 4-3.973 4-2.221 0-4.027-1.795-4.027-4v-2.667h-6.667c-0.737 0-1.333-0.597-1.333-1.333s0.596-1.333 1.333-1.333h16c0.737 0 1.333 0.597 1.333 1.333s-0.596 1.333-1.333 1.333zM24.943 15.609c-0.26 0.26-0.601 0.391-0.943 0.391s-0.683-0.131-0.943-0.391l-1.724-1.724-1.724 1.724c-0.26 0.26-0.601 0.391-0.943 0.391s-0.683-0.131-0.943-0.391c-0.521-0.521-0.521-1.364 0-1.885l1.724-1.724-1.724-1.724c-0.521-0.521-0.521-1.364 0-1.885s1.364-0.521 1.885 0l1.724 1.724 1.724-1.724c0.521-0.521 1.364-0.521 1.885 0s0.521 1.364 0 1.885l-1.724 1.724 1.724 1.724c0.521 0.521 0.521 1.364 0 1.885z"></path>
</svg>
