<!-- Generated by IcoMoon.io -->
<svg version="1.1" xmlns="http://www.w3.org/2000/svg" width="32" height="32" viewBox="0 0 32 32">
<title>pawn</title>
<path d="M22.25 28h-12.5q-0.527 0-0.889-0.361t-0.361-0.889v-1.25q0-0.508 0.361-0.879t0.889-0.371q1.543 0 2.646-1.748t1.104-4.502q-0.879 0-1.69-0.439t-0.81-0.811q0-0.41 1.016-0.742-1.016-1.348-1.016-3.008 0-2.070 1.465-3.535t3.535-1.465 3.535 1.465 1.465 3.535q0 1.66-1.016 3.008 1.016 0.332 1.016 0.742 0 0.371-0.811 0.811t-1.689 0.439q0 2.754 1.104 4.502t2.646 1.748q0.508 0 0.879 0.371t0.371 0.879v1.25q0 0.527-0.361 0.889t-0.889 0.361z"></path>
</svg>
